<svg xmlns="http://www.w3.org/2000/svg" xml:space="preserve" width="392" height="594" viewBox="0 0 103.717 157.163"><path d="M61.621 69.85c-2.77 0-5 2.23-5 5v147.162c0 2.77 2.23 5 5 5h93.716c2.77 0 5-2.23 5-5V74.85c0-2.77-2.23-5-5-5zm1.722 5.133a1.634 1.634 0 0 1 1.634 1.634 1.634 1.634 0 0 1-1.634 1.633 1.634 1.634 0 0 1-1.634-1.633 1.634 1.634 0 0 1 1.634-1.634m90.272 0a1.634 1.634 0 0 1 1.634 1.634 1.634 1.634 0 0 1-1.634 1.633 1.634 1.634 0 0 1-1.634-1.633 1.634 1.634 0 0 1 1.634-1.634m-90.272 106.82a1.634 1.634 0 0 1 1.634 1.634 1.634 1.634 0 0 1-1.634 1.634 1.634 1.634 0 0 1-1.634-1.634 1.634 1.634 0 0 1 1.634-1.634m90.272 0a1.634 1.634 0 0 1 1.634 1.634 1.634 1.634 0 0 1-1.634 1.634 1.634 1.634 0 0 1-1.634-1.634 1.634 1.634 0 0 1 1.634-1.634" style="fill:#cad7c1;fill-opacity:1;stroke-width:5.1;stroke-linecap:round;-inkscape-stroke:none;paint-order:stroke fill markers" transform="translate(-56.62 -69.85)"/><path d="M61.621 69.85c-2.77 0-5 2.23-5 5v110.31c0 2.77 2.23 5 5 5h93.716c2.77 0 5-2.23 5-5V74.85c0-2.77-2.23-5-5-5zm1.722 5.133a1.634 1.634 0 0 1 1.634 1.634 1.634 1.634 0 0 1-1.634 1.633 1.634 1.634 0 0 1-1.634-1.633 1.634 1.634 0 0 1 1.634-1.634m90.272 0a1.634 1.634 0 0 1 1.634 1.634 1.634 1.634 0 0 1-1.634 1.633 1.634 1.634 0 0 1-1.634-1.633 1.634 1.634 0 0 1 1.634-1.634m-90.272 106.82a1.634 1.634 0 0 1 1.634 1.634 1.634 1.634 0 0 1-1.634 1.634 1.634 1.634 0 0 1-1.634-1.634 1.634 1.634 0 0 1 1.634-1.634m90.272 0a1.634 1.634 0 0 1 1.634 1.634 1.634 1.634 0 0 1-1.634 1.634 1.634 1.634 0 0 1-1.634-1.634 1.634 1.634 0 0 1 1.634-1.634" style="fill:#a6bc97;fill-opacity:1;stroke-width:5.1;stroke-linecap:round;-inkscape-stroke:none;paint-order:stroke fill markers" transform="translate(-56.62 -69.85)"/><path d="M108.823 69.85c-2.77 0-5 2.23-5 5v110.31c0 2.77 2.23 5 5 5h46.514c2.77 0 5-2.23 5-5V74.85c0-2.77-2.23-5-5-5zm1.722 5.133a1.634 1.634 0 0 1 1.634 1.634 1.634 1.634 0 0 1-1.634 1.633 1.634 1.634 0 0 1-1.634-1.633 1.634 1.634 0 0 1 1.634-1.634m43.07 0a1.634 1.634 0 0 1 1.634 1.634 1.634 1.634 0 0 1-1.634 1.633 1.634 1.634 0 0 1-1.634-1.633 1.634 1.634 0 0 1 1.634-1.634m-43.07 106.776a1.634 1.634 0 0 1 1.634 1.634 1.634 1.634 0 0 1-1.634 1.634 1.634 1.634 0 0 1-1.634-1.634 1.634 1.634 0 0 1 1.634-1.634m43.07.044a1.634 1.634 0 0 1 1.634 1.634 1.634 1.634 0 0 1-1.634 1.634 1.634 1.634 0 0 1-1.634-1.634 1.634 1.634 0 0 1 1.634-1.634" style="fill:#8eaa7c;fill-opacity:1;stroke-width:5.1;stroke-linecap:round;-inkscape-stroke:none;paint-order:stroke fill markers" transform="translate(-56.62 -69.85)"/><path d="M63.343 73.069a3.547 3.547 0 0 0-3.547 3.548 3.547 3.547 0 0 0 3.547 3.547 3.547 3.547 0 0 0 3.547-3.547 3.547 3.547 0 0 0-3.547-3.548m0 1.914a1.634 1.634 0 0 1 1.634 1.634 1.634 1.634 0 0 1-1.634 1.633 1.634 1.634 0 0 1-1.634-1.633 1.634 1.634 0 0 1 1.634-1.634M153.615 73.069a3.547 3.547 0 0 0-3.547 3.548 3.547 3.547 0 0 0 3.547 3.547 3.547 3.547 0 0 0 3.548-3.547 3.547 3.547 0 0 0-3.548-3.548m0 1.914a1.634 1.634 0 0 1 1.634 1.634 1.634 1.634 0 0 1-1.634 1.633 1.634 1.634 0 0 1-1.634-1.633 1.634 1.634 0 0 1 1.634-1.634M110.545 73.069a3.547 3.547 0 0 0-3.547 3.548 3.547 3.547 0 0 0 3.547 3.547 3.547 3.547 0 0 0 3.547-3.547 3.547 3.547 0 0 0-3.547-3.548m0 1.914a1.634 1.634 0 0 1 1.634 1.634 1.634 1.634 0 0 1-1.634 1.633 1.634 1.634 0 0 1-1.634-1.633 1.634 1.634 0 0 1 1.634-1.634M110.545 179.846a3.547 3.547 0 0 0-3.547 3.547 3.547 3.547 0 0 0 3.547 3.548 3.547 3.547 0 0 0 3.547-3.548 3.547 3.547 0 0 0-3.547-3.547m0 1.913a1.634 1.634 0 0 1 1.634 1.634 1.634 1.634 0 0 1-1.634 1.634 1.634 1.634 0 0 1-1.634-1.634 1.634 1.634 0 0 1 1.634-1.634" style="fill:#b4890e;fill-opacity:1;stroke-width:5.1;stroke-linecap:round;-inkscape-stroke:none;paint-order:stroke fill markers" transform="translate(-56.62 -69.85)"/><path d="M63.343 179.897a3.547 3.547 0 0 0-3.547 3.547 3.547 3.547 0 0 0 3.547 3.548 3.547 3.547 0 0 0 3.547-3.548 3.547 3.547 0 0 0-3.547-3.547m0 1.906a1.634 1.634 0 0 1 1.634 1.634 1.634 1.634 0 0 1-1.634 1.634 1.634 1.634 0 0 1-1.634-1.634 1.634 1.634 0 0 1 1.634-1.634" style="display:inline;fill:#b4890e;fill-opacity:1;stroke-width:5.1;stroke-linecap:round;-inkscape-stroke:none;paint-order:stroke fill markers" transform="translate(-56.62 -69.85)"/><path d="M153.615 179.89a3.547 3.547 0 0 0-3.547 3.547 3.547 3.547 0 0 0 3.547 3.547 3.547 3.547 0 0 0 3.548-3.547 3.547 3.547 0 0 0-3.548-3.547m0 1.913a1.634 1.634 0 0 1 1.634 1.634 1.634 1.634 0 0 1-1.634 1.634 1.634 1.634 0 0 1-1.634-1.634 1.634 1.634 0 0 1 1.634-1.634" style="fill:#b4890e;fill-opacity:1;stroke-width:5.1;stroke-linecap:round;-inkscape-stroke:none;paint-order:stroke fill markers" transform="translate(-56.62 -69.85)"/><path d="M41.344 259.765q0 3.469-1.313 6.125t-3.531 4.375q-2.625 2.062-5.781 2.937-3.125.875-7.969.875H6.25v-46.53h13.781q5.094 0 7.625.374 2.532.375 4.844 1.563 2.563 1.343 3.719 3.468 1.156 2.094 1.156 5.032 0 3.312-1.687 5.656-1.688 2.312-4.5 3.719v.25q4.718.968 7.437 4.156 2.719 3.156 2.719 8m-10.407-20.969q0-1.687-.562-2.844t-1.812-1.875q-1.47-.843-3.563-1.03-2.094-.22-5.187-.22h-7.375v13.438h8q2.906 0 4.625-.281 1.718-.313 3.187-1.25t2.063-2.407q.625-1.5.625-3.53m3.97 21.219q0-2.813-.844-4.469T31 252.734q-1.5-.782-3.656-1-2.125-.25-5.188-.25h-9.718v17.312h8.187q4.063 0 6.656-.406 2.594-.438 4.25-1.563 1.75-1.218 2.563-2.78.812-1.563.812-4.032m54.78-3.813h-17.03v17.032h-5.188v-17.032H50.438v-5h17.03v-17.03h5.188v17.03h17.031Z" aria-label="B+" style="font-size:64px;line-height:.7;font-family:verdana;-inkscape-font-specification:verdana;white-space:pre;stroke-width:19.2756;stroke-linecap:round;paint-order:stroke fill markers" transform="matrix(.26458 0 0 .26458 36.611 71.5)"/><path d="M42.938 274.077h-6.594L31.78 261.11H11.656l-4.562 12.968H.813l16.937-46.53H26Zm-13.063-18.28-8.156-22.845-8.188 22.844zm59.688.405H72.53v17.032h-5.187v-17.032H50.313v-5h17.03v-17.03h5.188v17.03h17.031Z" aria-label="A+" style="font-size:64px;line-height:.7;font-family:Verdana;-inkscape-font-specification:Verdana;white-space:pre;stroke-width:19.2756;stroke-linecap:round;paint-order:stroke fill markers" transform="matrix(.26458 0 0 .26458 4.125 -6.18)"/><path d="M73.526 274.077H37.214v-5.75l28.531-35.28H38.276v-5.5H72.84v5.593l-28.813 35.437h29.5zm36.72-16.843h-25.72q0 3.218.97 5.625.968 2.375 2.655 3.906 1.625 1.5 3.844 2.25 2.25.75 4.938.75 3.562 0 7.156-1.406 3.625-1.438 5.156-2.813h.313v6.406q-2.97 1.25-6.063 2.094-3.094.844-6.5.844-8.687 0-13.562-4.688-4.875-4.718-4.875-13.375 0-8.562 4.656-13.593 4.687-5.032 12.312-5.032 7.063 0 10.875 4.125 3.844 4.125 3.844 11.72zm-5.72-4.5q-.03-4.625-2.343-7.157-2.282-2.53-6.97-2.53-4.718 0-7.53 2.78-2.782 2.782-3.157 6.907zm36.407-7.157h-.313q-1.312-.312-2.562-.437-1.22-.156-2.907-.156-2.718 0-5.25 1.218-2.53 1.188-4.875 3.094v24.781h-5.875v-34.906h5.875v5.156q3.5-2.812 6.157-3.968 2.687-1.188 5.468-1.188 1.532 0 2.22.094.687.062 2.062.281zm35.28 11.063q0 8.531-4.374 13.469-4.375 4.937-11.719 4.937-7.406 0-11.781-4.937-4.344-4.938-4.344-13.47 0-8.53 4.344-13.468 4.375-4.969 11.781-4.969 7.344 0 11.719 4.97 4.375 4.937 4.375 13.468m-6.062 0q0-6.781-2.656-10.063-2.656-3.312-7.375-3.312-4.781 0-7.437 3.312-2.625 3.282-2.625 10.063 0 6.562 2.656 9.969 2.656 3.375 7.406 3.375 4.688 0 7.344-3.344 2.687-3.375 2.687-10" aria-label="Zero" style="font-size:64px;line-height:.7;font-family:Verdana;-inkscape-font-specification:Verdana;text-align:center;text-anchor:middle;white-space:pre;stroke-width:19.2756;stroke-linecap:round;paint-order:stroke fill markers" transform="matrix(.26458 0 0 .26458 41.249 -6.334)"/><path d="M91.88 13.122h10.228v94.109H91.88z" style="fill:#000;fill-opacity:1;stroke-width:5.1;stroke-linecap:round;-inkscape-stroke:none;paint-order:stroke fill markers"/><path d="M101.067 103.585a1.85 1.85 0 1 1-3.698 0 1.85 1.85 0 0 1 3.698 0" style="fill:#417f79;fill-opacity:1;stroke-width:5.1;stroke-linecap:round;-inkscape-stroke:none;paint-order:stroke fill markers" transform="translate(.089 .528)"/><path d="M96.443 103.585a1.85 1.85 0 1 1-3.7 0 1.85 1.85 0 0 1 3.7 0" style="fill:#393939;fill-opacity:1;stroke-width:5.1;stroke-linecap:round;-inkscape-stroke:none;paint-order:stroke fill markers" transform="translate(.089 .528)"/><path d="M101.067 98.96a1.85 1.85 0 1 1-3.698 0 1.85 1.85 0 0 1 3.698 0" style="fill:#417f79;fill-opacity:1;stroke-width:5.1;stroke-linecap:round;-inkscape-stroke:none;paint-order:stroke fill markers" transform="translate(.089 .528)"/><path d="M96.443 98.96a1.85 1.85 0 1 1-3.7 0 1.85 1.85 0 0 1 3.7 0M101.067 94.335a1.85 1.85 0 1 1-3.698 0 1.85 1.85 0 0 1 3.698 0" style="fill:#5b661f;fill-opacity:1;stroke-width:5.1;stroke-linecap:round;-inkscape-stroke:none;paint-order:stroke fill markers" transform="translate(.089 .528)"/><path d="M96.443 94.335a1.85 1.85 0 1 1-3.7 0 1.85 1.85 0 0 1 3.7 0" style="fill:#417f79;fill-opacity:1;stroke-width:5.1;stroke-linecap:round;-inkscape-stroke:none;paint-order:stroke fill markers" transform="translate(.089 .528)"/><path d="M101.067 89.71a1.85 1.85 0 1 1-3.698 0 1.85 1.85 0 0 1 3.698 0" style="fill:#393939;fill-opacity:1;stroke-width:5.1;stroke-linecap:round;-inkscape-stroke:none;paint-order:stroke fill markers" transform="translate(.089 .528)"/><path d="M96.443 89.71a1.85 1.85 0 1 1-3.7 0 1.85 1.85 0 0 1 3.7 0M101.067 85.085a1.85 1.85 0 1 1-3.698 0 1.85 1.85 0 0 1 3.698 0" style="fill:#091c23;fill-opacity:1;stroke-width:5.1;stroke-linecap:round;-inkscape-stroke:none;paint-order:stroke fill markers" transform="translate(.089 .528)"/><path d="M96.443 85.085a1.85 1.85 0 1 1-3.7 0 1.85 1.85 0 0 1 3.7 0" style="fill:#5b661f;fill-opacity:1;stroke-width:5.1;stroke-linecap:round;-inkscape-stroke:none;paint-order:stroke fill markers" transform="translate(.089 .528)"/><path d="M101.067 80.46a1.85 1.85 0 1 1-3.698 0 1.85 1.85 0 0 1 3.698 0" style="fill:#393939;fill-opacity:1;stroke-width:5.1;stroke-linecap:round;-inkscape-stroke:none;paint-order:stroke fill markers" transform="translate(.089 .528)"/><path d="M96.443 80.46a1.85 1.85 0 1 1-3.7 0 1.85 1.85 0 0 1 3.7 0" style="fill:#5b661f;fill-opacity:1;stroke-width:5.1;stroke-linecap:round;-inkscape-stroke:none;paint-order:stroke fill markers" transform="translate(.089 .528)"/><path d="M101.067 75.836a1.85 1.85 0 1 1-3.698 0 1.85 1.85 0 0 1 3.698 0M96.443 75.836a1.85 1.85 0 1 1-3.7 0 1.85 1.85 0 0 1 3.7 0" style="fill:#2f5b88;fill-opacity:1;stroke-width:5.1;stroke-linecap:round;-inkscape-stroke:none;paint-order:stroke fill markers" transform="translate(.089 .528)"/><path d="M101.067 71.211a1.85 1.85 0 1 1-3.698 0 1.85 1.85 0 0 1 3.698 0" style="fill:#822d56;fill-opacity:1;stroke-width:5.1;stroke-linecap:round;-inkscape-stroke:none;paint-order:stroke fill markers" transform="translate(.089 .528)"/><path d="M96.443 71.211a1.85 1.85 0 1 1-3.7 0 1.85 1.85 0 0 1 3.7 0" style="fill:#393939;fill-opacity:1;stroke-width:5.1;stroke-linecap:round;-inkscape-stroke:none;paint-order:stroke fill markers" transform="translate(.089 .528)"/><path d="M101.067 66.586a1.85 1.85 0 1 1-3.698 0 1.85 1.85 0 0 1 3.698 0M96.443 66.586a1.85 1.85 0 1 1-3.7 0 1.85 1.85 0 0 1 3.7 0" style="fill:#822d56;fill-opacity:1;stroke-width:5.1;stroke-linecap:round;-inkscape-stroke:none;paint-order:stroke fill markers" transform="translate(.089 .528)"/><path d="M101.067 61.961a1.85 1.85 0 1 1-3.698 0 1.85 1.85 0 0 1 3.698 0" style="fill:#5b661f;fill-opacity:1;stroke-width:5.1;stroke-linecap:round;-inkscape-stroke:none;paint-order:stroke fill markers" transform="translate(.089 .528)"/><path d="M96.443 61.961a1.85 1.85 0 1 1-3.7 0 1.85 1.85 0 0 1 3.7 0" style="fill:#822d56;fill-opacity:1;stroke-width:5.1;stroke-linecap:round;-inkscape-stroke:none;paint-order:stroke fill markers" transform="translate(.089 .528)"/><path d="M101.067 57.336a1.85 1.85 0 1 1-3.698 0 1.85 1.85 0 0 1 3.698 0" style="fill:#393939;fill-opacity:1;stroke-width:5.1;stroke-linecap:round;-inkscape-stroke:none;paint-order:stroke fill markers" transform="translate(.089 .528)"/><path d="M96.443 57.336a1.85 1.85 0 1 1-3.7 0 1.85 1.85 0 0 1 3.7 0" style="fill:#822d56;fill-opacity:1;stroke-width:5.1;stroke-linecap:round;-inkscape-stroke:none;paint-order:stroke fill markers" transform="translate(.089 .528)"/><path d="M101.067 52.712a1.85 1.85 0 1 1-3.698 0 1.85 1.85 0 0 1 3.698 0" style="fill:#5b661f;fill-opacity:1;stroke-width:5.1;stroke-linecap:round;-inkscape-stroke:none;paint-order:stroke fill markers" transform="translate(.089 .528)"/><path d="M96.443 52.712a1.85 1.85 0 1 1-3.7 0 1.85 1.85 0 0 1 3.7 0" style="fill:#8d5f2c;fill-opacity:1;stroke-width:5.1;stroke-linecap:round;-inkscape-stroke:none;paint-order:stroke fill markers" transform="translate(.089 .528)"/><path d="M101.067 48.087a1.85 1.85 0 1 1-3.698 0 1.85 1.85 0 0 1 3.698 0M96.443 48.087a1.85 1.85 0 1 1-3.7 0 1.85 1.85 0 0 1 3.7 0" style="fill:#5b661f;fill-opacity:1;stroke-width:5.1;stroke-linecap:round;-inkscape-stroke:none;paint-order:stroke fill markers" transform="translate(.089 .528)"/><path d="M101.067 43.462a1.85 1.85 0 1 1-3.698 0 1.85 1.85 0 0 1 3.698 0" style="fill:#393939;fill-opacity:1;stroke-width:5.1;stroke-linecap:round;-inkscape-stroke:none;paint-order:stroke fill markers" transform="translate(.089 .528)"/><path d="M96.443 43.462a1.85 1.85 0 1 1-3.7 0 1.85 1.85 0 0 1 3.7 0" style="fill:#5b661f;fill-opacity:1;stroke-width:5.1;stroke-linecap:round;-inkscape-stroke:none;paint-order:stroke fill markers" transform="translate(.089 .528)"/><path d="M101.067 38.837a1.85 1.85 0 1 1-3.698 0 1.85 1.85 0 0 1 3.698 0" style="fill:#417f79;fill-opacity:1;stroke-width:5.1;stroke-linecap:round;-inkscape-stroke:none;paint-order:stroke fill markers" transform="translate(.089 .528)"/><path d="M96.443 38.837a1.85 1.85 0 1 1-3.7 0 1.85 1.85 0 0 1 3.7 0" style="fill:#5b661f;fill-opacity:1;stroke-width:5.1;stroke-linecap:round;-inkscape-stroke:none;paint-order:stroke fill markers" transform="translate(.089 .528)"/><path d="M101.067 34.212a1.85 1.85 0 1 1-3.698 0 1.85 1.85 0 0 1 3.698 0" style="fill:#494b7f;fill-opacity:1;stroke-width:5.1;stroke-linecap:round;-inkscape-stroke:none;paint-order:stroke fill markers" transform="translate(.089 .528)"/><path d="M96.443 34.212a1.85 1.85 0 1 1-3.7 0 1.85 1.85 0 0 1 3.7 0" style="fill:#393939;fill-opacity:1;stroke-width:5.1;stroke-linecap:round;-inkscape-stroke:none;paint-order:stroke fill markers" transform="translate(.089 .528)"/><path d="M101.067 29.587a1.85 1.85 0 1 1-3.698 0 1.85 1.85 0 0 1 3.698 0" style="fill:#494b7f;fill-opacity:1;stroke-width:5.1;stroke-linecap:round;-inkscape-stroke:none;paint-order:stroke fill markers" transform="translate(.089 .528)"/><path d="M96.443 29.587a1.85 1.85 0 1 1-3.7 0 1.85 1.85 0 0 1 3.7 0" style="fill:#8d6260;fill-opacity:1;stroke-width:5.1;stroke-linecap:round;-inkscape-stroke:none;paint-order:stroke fill markers" transform="translate(.089 .528)"/><path d="M101.067 24.963a1.85 1.85 0 1 1-3.698 0 1.85 1.85 0 0 1 3.698 0" style="fill:#393939;fill-opacity:1;stroke-width:5.1;stroke-linecap:round;-inkscape-stroke:none;paint-order:stroke fill markers" transform="translate(.089 .528)"/><path d="M96.443 24.963a1.85 1.85 0 1 1-3.7 0 1.85 1.85 0 0 1 3.7 0" style="fill:#2f5b88;fill-opacity:1;stroke-width:5.1;stroke-linecap:round;-inkscape-stroke:none;paint-order:stroke fill markers" transform="translate(.089 .528)"/><path d="M101.067 20.338a1.85 1.85 0 1 1-3.698 0 1.85 1.85 0 0 1 3.698 0" style="fill:#872c26;fill-opacity:1;stroke-width:5.1;stroke-linecap:round;-inkscape-stroke:none;paint-order:stroke fill markers" transform="translate(.089 .528)"/><path d="M96.443 20.338a1.85 1.85 0 1 1-3.7 0 1.85 1.85 0 0 1 3.7 0" style="fill:#2f5b88;fill-opacity:1;stroke-width:5.1;stroke-linecap:round;-inkscape-stroke:none;paint-order:stroke fill markers" transform="translate(.089 .528)"/><path d="M101.067 15.713a1.85 1.85 0 1 1-3.698 0 1.85 1.85 0 0 1 3.698 0" style="fill:#872c26;fill-opacity:1;stroke-width:5.1;stroke-linecap:round;-inkscape-stroke:none;paint-order:stroke fill markers" transform="translate(.089 .528)"/><path d="M92.833 14.391h3.699v3.699h-3.699z" style="fill:#8d5f2c;fill-opacity:1;stroke-width:5.1;stroke-linecap:round;-inkscape-stroke:none;paint-order:stroke fill markers"/></svg>